<?xml version="1.0" encoding="utf-8"?>
<!-- Generator: Adobe Illustrator 23.1.1, SVG Export Plug-In . SVG Version: 6.00 Build 0)  -->
<svg version="1.1" id="Layer_1" xmlns="http://www.w3.org/2000/svg" xmlns:xlink="http://www.w3.org/1999/xlink" x="0px" y="0px"
	 viewBox="0 0 160 162" style="enable-background:new 0 0 160 162;" xml:space="preserve">
<style type="text/css">
	.st0{fill-rule:evenodd;clip-rule:evenodd;fill:#FFFFFF;stroke:#none;stroke-miterlimit:10;}
</style>
<title>Icons/arrow-keep-right</title>
<desc>Created with Sketch.</desc>
<g>
	<path id="Fill-1" class="st0" d="M96.8,130.8c0.4,0,0.9-0.1,1.3-0.3c15.4-6.7,25.3-22.3,25.3-39.7c0-23.9-19.4-43.3-43.3-43.3V34.3
		c0-1.3-0.8-2.6-2.1-3.1c-1.2-0.5-2.7-0.2-3.6,0.7L41.2,65.2c-1.3,1.3-1.3,3.4,0,4.7l33.3,33.3c1,1,2.4,1.2,3.6,0.7
		c1.2-0.5,2.1-1.7,2.1-3.1V84.2c16,0,23.2,11.7,23.2,23.3c0,6.5-3.2,12.8-8.7,17.4c-1.3,1.1-1.6,2.9-0.7,4.3
		C94.6,130.2,95.6,130.8,96.8,130.8L96.8,130.8z M80.1,54.2c20.2,0,36.6,16.4,36.6,36.6c0,8.6-2.7,16.5-7.5,22.7
		c0.5-2,0.7-4,0.7-6.1c0-17.6-12.3-30-29.9-30h-3.3c-1.8,0-3.3,1.5-3.3,3.3v11.9L48.2,67.6l25.2-25.2v8.6c0,1.8,1.5,3.3,3.3,3.3
		H80.1z"/>
	<path id="Fill-3" class="st0" d="M80.1,7.7C39.8,7.7,6.9,40.5,6.9,80.9c0,40.4,32.8,73.2,73.2,73.2c40.4,0,73.2-32.8,73.2-73.2
		C153.3,40.5,120.5,7.7,80.1,7.7 M80.1,1C124.2,1,160,36.8,160,80.9s-35.8,79.9-79.9,79.9C36,160.7,0.3,125,0.3,80.9S36,1,80.1,1"/>
</g>
</svg>
